<svg width="640" height="640" viewBox="0 0 640 640" fill="none" xmlns="http://www.w3.org/2000/svg">
  <defs>
    <linearGradient id="bg" x1="84" y1="72" x2="560" y2="560" gradientUnits="userSpaceOnUse">
      <stop stop-color="#FFF8F8"/>
      <stop offset="1" stop-color="#FFECEC"/>
    </linearGradient>
    <linearGradient id="chip" x1="230" y1="198" x2="410" y2="442" gradientUnits="userSpaceOnUse">
      <stop stop-color="#FF8C93"/>
      <stop offset="1" stop-color="#E84863"/>
    </linearGradient>
    <linearGradient id="plate" x1="180" y1="148" x2="470" y2="470" gradientUnits="userSpaceOnUse">
      <stop stop-color="#FFFDFC"/>
      <stop offset="1" stop-color="#FFF1F0"/>
    </linearGradient>
    <filter id="shadow" x="96" y="84" width="448" height="468" filterUnits="userSpaceOnUse" color-interpolation-filters="sRGB">
      <feFlood flood-opacity="0" result="BackgroundImageFix"/>
      <feColorMatrix in="SourceAlpha" type="matrix" values="0 0 0 0 0 0 0 0 0 0 0 0 0 0 0 0 0 0 127 0" result="hardAlpha"/>
      <feOffset dy="22"/>
      <feGaussianBlur stdDeviation="26"/>
      <feColorMatrix type="matrix" values="0 0 0 0 0.907717 0 0 0 0 0.376265 0 0 0 0 0.470953 0 0 0 0.16 0"/>
      <feBlend mode="normal" in2="BackgroundImageFix" result="effect1_dropShadow_1_2"/>
      <feBlend mode="normal" in="SourceGraphic" in2="effect1_dropShadow_1_2" result="shape"/>
    </filter>
  </defs>
  <circle cx="146" cy="138" r="86" fill="#FFE8EA"/>
  <circle cx="500" cy="120" r="68" fill="#FFF1F2"/>
  <circle cx="516" cy="492" r="92" fill="#FFF4F5"/>
  <g filter="url(#shadow)">
    <rect x="148" y="116" width="344" height="364" rx="34" fill="url(#bg)"/>
    <rect x="148.75" y="116.75" width="342.5" height="362.5" rx="33.25" stroke="#F8C8CE" stroke-width="1.5"/>
    <rect x="182" y="150" width="74" height="42" rx="14" fill="#FFF0F2"/>
    <rect x="385" y="150" width="74" height="42" rx="14" fill="#FF6675"/>
    <path d="M209 171H230.5" stroke="#E23D58" stroke-width="10" stroke-linecap="round"/>
    <path d="M406 171H438" stroke="white" stroke-width="10" stroke-linecap="round"/>
    <rect x="222" y="196" width="196" height="196" rx="38" fill="url(#plate)"/>
    <rect x="250" y="224" width="140" height="140" rx="24" fill="url(#chip)"/>
    <path d="M280 224V364" stroke="#FFE5E7" stroke-width="12"/>
    <path d="M320 224V364" stroke="#FFE5E7" stroke-width="12"/>
    <path d="M360 224V364" stroke="#FFE5E7" stroke-width="12"/>
    <path d="M250 258H390" stroke="#FFE5E7" stroke-width="12"/>
    <path d="M250 298H390" stroke="#FFE5E7" stroke-width="12"/>
    <path d="M250 338H390" stroke="#FFE5E7" stroke-width="12"/>
    <rect x="196" y="418" width="248" height="12" rx="6" fill="#22304A"/>
    <rect x="236" y="448" width="168" height="9" rx="4.5" fill="#80889A"/>
  </g>
</svg>
